<?xml version="1.0" encoding="UTF-8"?>
<svg xmlns="http://www.w3.org/2000/svg" viewBox="120 120 750 750" role="img" aria-labelledby="homi-mark-title">
  <title id="homi-mark-title">Homi AI</title>
  <g fill="#ed9840">
    <path d="M810,458.85v-2.5c0-6.28-5.14-11.35-11.42-11.26-262.11,4.05-490.47,147.19-614.53,358.87-1.57,2.67.34,6.04,3.44,6.04h166.58c4.01,0,7.7-2.15,9.73-5.61,95.12-162.56,251.72-284.76,437.89-334.69,4.9-1.31,8.3-5.77,8.3-10.85Z"/>
    <rect x="630" y="180" width="180" height="630" rx="11.25" ry="11.25"/>
    <path d="M360,554.62V191.25c0-6.21-5.04-11.25-11.25-11.25h-157.5c-6.21,0-11.25,5.04-11.25v559.98c0,4.05,5.34,5.54,7.42,2.06,44.91-75.05,103-141.3,171.07-195.56.95-.76,1.5-1.9,1.5-3.12Z"/>
  </g>
</svg>

