<?xml version="1.0" encoding="UTF-8"?>
<svg id="_레이어_1" data-name="레이어 1" xmlns="http://www.w3.org/2000/svg" viewBox="0 0 3555 990">
  <defs>
    <style>
      .cls-1 {
        fill: #1e1e20;
      }

      .cls-2 {
        fill: #ed9840;
      }
    </style>
  </defs>
  <g>
    <path class="cls-2" d="M810,458.85v-2.5c0-6.28-5.14-11.35-11.42-11.26-262.11,4.05-490.47,147.19-614.53,358.87-1.57,2.67.34,6.04,3.44,6.04h166.58c4.01,0,7.7-2.15,9.73-5.61,95.12-162.56,251.72-284.76,437.89-334.69,4.9-1.31,8.3-5.77,8.3-10.85Z"/>
    <rect class="cls-2" x="630" y="180" width="180" height="630" rx="11.25" ry="11.25"/>
    <path class="cls-2" d="M360,554.62V191.25c0-6.21-5.04-11.25-11.25-11.25h-157.5c-6.21,0-11.25,5.04-11.25,11.25v559.98c0,4.05,5.34,5.54,7.42,2.06,44.91-75.05,103-141.3,171.07-195.56.95-.76,1.5-1.9,1.5-3.12Z"/>
  </g>
  <g>
    <path class="cls-1" d="M990,761.43v-494.09h76.23v211.75h207.52v-211.75h76.23v494.09h-76.23v-213.16h-207.52v213.16h-76.23Z"/>
    <path class="cls-1" d="M1631.6,771.32c-60.7,0-108.94-17.05-144.7-51.17-35.77-34.11-53.64-83.4-53.64-147.87v-115.76c0-64.46,17.88-113.75,53.64-147.87,35.75-34.11,83.99-51.17,144.7-51.17s109.05,17.06,145.05,51.17c36,34.12,54,83.41,54,147.87v115.76c0,64.47-18,113.76-54,147.87-36,34.12-84.35,51.17-145.05,51.17ZM1631.6,702.85c39.05,0,69.17-11.4,90.35-34.23,21.18-22.82,31.76-54,31.76-93.52v-121.4c0-39.53-10.59-70.69-31.76-93.52-21.18-22.82-51.29-34.23-90.35-34.23s-68,11.41-89.64,34.23c-21.65,22.83-32.47,54-32.47,93.52v121.4c0,39.53,10.82,70.7,32.47,93.52,21.64,22.83,51.53,34.23,89.64,34.23Z"/>
    <path class="cls-1" d="M1913.93,761.43v-494.09h143.29l107.99,443.27h11.29l107.99-443.27h143.29v494.09h-74.11v-440.44h-11.29l-107.29,440.44h-128.46l-107.29-440.44h-11.29v440.44h-74.11Z"/>
    <path class="cls-1" d="M2523.77,761.43v-494.09h76.23v494.09h-76.23Z"/>
    <path class="cls-1" d="M2823.04,761.43l141.17-494.09h134.11l140.46,494.09h-78.35l-32.47-116.46h-193.4l-32.47,116.46h-79.05ZM2953.62,574.39h155.28l-72-259.75h-11.29l-72,259.75Z"/>
    <path class="cls-1" d="M3298.77,761.43v-494.09h76.23v494.09h-76.23Z"/>
  </g>
</svg>